<svg xmlns="http://www.w3.org/2000/svg" viewBox="0 0 49 49" shape-rendering="crispEdges"><path fill="#FFFFFF" d="M0 0h49v49H0z"/><path stroke="#000000" d="M6 6.5h7m2 0h1m1 0h2m1 0h1m1 0h1m1 0h3m4 0h2m3 0h7M6 7.5h1m5 0h1m1 0h1m2 0h1m1 0h1m1 0h1m1 0h1m1 0h3m1 0h3m4 0h1m5 0h1M6 8.5h1m1 0h3m1 0h1m1 0h3m4 0h1m1 0h3m2 0h1m2 0h2m1 0h1m1 0h1m1 0h3m1 0h1M6 9.5h1m1 0h3m1 0h1m1 0h1m2 0h3m1 0h1m1 0h2m4 0h4m3 0h1m1 0h3m1 0h1M6 10.5h1m1 0h3m1 0h1m1 0h2m2 0h1m3 0h1m1 0h2m4 0h1m1 0h1m1 0h1m1 0h1m1 0h3m1 0h1M6 11.5h1m5 0h1m1 0h4m2 0h1m1 0h3m4 0h4m1 0h1m1 0h1m5 0h1M6 12.5h7m1 0h1m1 0h1m1 0h1m1 0h1m1 0h1m1 0h1m1 0h1m1 0h1m1 0h1m1 0h1m1 0h1m1 0h7M16 13.5h2m1 0h1m4 0h2m1 0h3m1 0h1m1 0h2M8 14.5h1m2 0h5m1 0h2m2 0h4m5 0h2m3 0h1m1 0h5M6 15.5h4m1 0h1m1 0h3m1 0h4m1 0h1m1 0h2m4 0h2m5 0h2m3 0h1M9 16.5h2m1 0h1m1 0h3m1 0h3m1 0h1m1 0h3m1 0h1m1 0h1m2 0h1m1 0h3m2 0h1m1 0h1M6 17.5h3m1 0h2m1 0h3m3 0h2m1 0h1m1 0h2m1 0h1m1 0h1m2 0h1m4 0h3m1 0h1M11 18.5h5m1 0h1m2 0h3m3 0h5m2 0h1m2 0h2M7 19.5h2m1 0h2m7 0h1m2 0h7m2 0h6m3 0h1m1 0h1M6 20.5h8m2 0h1m1 0h1m1 0h1m1 0h3m1 0h1m3 0h1m2 0h1m1 0h6m1 0h1M6 21.5h1m1 0h1m4 0h2m1 0h5m2 0h1m1 0h3m4 0h1m1 0h3m2 0h1m1 0h1M8 22.5h1m3 0h1m3 0h3m1 0h2m2 0h3m6 0h1m2 0h2m3 0h2M6 23.5h1m2 0h3m1 0h2m4 0h4m1 0h2m1 0h2m1 0h1m2 0h2m1 0h2m4 0h1M7 24.5h1m1 0h1m1 0h2m1 0h1m1 0h3m1 0h3m1 0h1m3 0h1m3 0h2m4 0h1m3 0h1M13 25.5h2m3 0h1m1 0h1m2 0h1m4 0h1m1 0h1m1 0h1m1 0h1m1 0h1m1 0h2M6 26.5h1m1 0h5m1 0h5m1 0h1m1 0h3m1 0h2m6 0h1m1 0h1m5 0h1M6 27.5h1m1 0h1m4 0h2m1 0h1m2 0h3m2 0h1m2 0h1m1 0h1m3 0h1m1 0h3m4 0h1M7 28.5h1m1 0h1m1 0h5m11 0h1m1 0h1m1 0h8m1 0h1m1 0h1M8 29.5h1m4 0h2m1 0h2m1 0h2m1 0h1m1 0h1m1 0h1m1 0h3m1 0h2m1 0h1m1 0h1m1 0h1m2 0h1M9 30.5h2m1 0h5m1 0h3m1 0h4m5 0h2m1 0h5M8 31.5h3m2 0h3m1 0h7m1 0h2m1 0h1m3 0h1m1 0h2m6 0h1M6 32.5h2m1 0h4m1 0h1m1 0h4m2 0h2m1 0h2m1 0h2m1 0h2m1 0h9M8 33.5h1m1 0h2m1 0h1m3 0h2m1 0h1m2 0h2m1 0h2m5 0h4m2 0h1m1 0h1M6 34.5h3m2 0h2m3 0h2m1 0h3m1 0h3m3 0h2m3 0h5M14 35.5h1m3 0h7m1 0h4m1 0h2m1 0h1m3 0h2m2 0h1M6 36.5h7m1 0h1m1 0h3m2 0h1m2 0h3m2 0h2m3 0h1m1 0h1m1 0h3m1 0h1M6 37.5h1m5 0h1m1 0h1m1 0h1m1 0h1m1 0h1m1 0h1m1 0h2m2 0h1m1 0h1m1 0h3m3 0h2m2 0h1M6 38.5h1m1 0h3m1 0h1m3 0h1m1 0h1m1 0h1m2 0h3m1 0h2m1 0h1m2 0h6m2 0h2M6 39.5h1m1 0h3m1 0h1m2 0h1m1 0h4m1 0h1m1 0h3m3 0h1m3 0h1m2 0h3m2 0h1M6 40.5h1m1 0h3m1 0h1m1 0h1m4 0h3m3 0h4m1 0h2m2 0h1m3 0h5M6 41.5h1m5 0h1m2 0h3m2 0h2m1 0h1m2 0h5m1 0h1m1 0h2m3 0h1M6 42.5h7m2 0h1m4 0h1m1 0h1m1 0h2m4 0h1m2 0h2m1 0h4m2 0h1"/></svg>
